<svg width="64" height="64" viewBox="0 0 64 64" fill="none" xmlns="http://www.w3.org/2000/svg">
<path d="M32.1267 4.80493C32.5779 5.13207 33.4426 5.73598 33.782 6.13599C34.5809 7.07771 34.7774 8.07605 35.9715 8.69263C36.2124 9.51624 36.6481 9.23223 36.9783 9.67212C37.6231 10.5312 38.2812 12.5973 39.699 12.1409C40.2264 11.9709 41.0371 11.0501 41.6062 11.2297C42.7696 12.1026 43.408 14.9401 43.949 16.0725C44.5424 17.3145 45.1942 18.7442 45.8299 19.7346C45.8212 19.773 45.8111 19.8112 45.8035 19.8499C45.733 20.2075 47.1271 22.1602 47.3338 22.553C47.5314 22.9284 47.69 23.3327 47.8591 23.7219C48.2276 24.5697 48.6852 25.4204 49.0066 26.2834C49.2436 26.9197 49.3753 27.5809 49.6355 28.2151C50.0126 29.1341 50.4793 30.0132 50.8465 30.9368C51.3201 32.1286 52.0899 34.5503 52.7898 35.5403C53.1082 35.9902 53.8569 37.1607 54.3748 37.2708C54.9695 37.3972 55.7837 36.5487 56.3328 36.3167C56.3554 36.3071 56.3776 36.2963 56.4002 36.2864C57.2937 36.9944 57.2898 37.6352 57.6248 38.6926L58.8572 42.6643C59.0577 43.2938 59.429 43.9608 59.5974 44.5286C59.7395 45.1652 59.8394 45.7504 60.0125 46.384C60.2527 47.2636 60.8418 48.0835 61.0691 48.9446C61.4084 50.2304 61.6201 51.334 62.2498 52.5305C62.3918 52.8014 62.3784 53.8578 62.5506 54.1829C63.0425 55.212 63.7531 55.895 63.9832 57.1292C64.0209 57.3313 63.999 57.3589 63.907 57.4944C63.1089 57.8547 59.971 57.555 58.9519 57.6458C57.5102 57.7743 56.1053 57.7247 54.6756 57.7375C53.0563 57.8027 51.4463 57.8033 49.825 57.8352C49.1362 57.8488 48.2007 57.7871 47.5076 57.7249C43.6012 57.374 39.707 58.8473 35.783 58.9338C35.1696 58.9474 34.4481 59.2172 33.8152 59.1936C32.3801 59.0417 30.4195 58.9967 29.0261 58.6292C27.1925 58.1454 25.8149 57.9732 23.948 57.7708C21.8118 57.4641 19.6291 57.6315 17.4822 57.72C16.5841 57.757 15.6286 57.6547 14.7332 57.6936C11.1916 57.8471 7.59791 58.0586 4.0652 57.7717C2.92307 57.6789 1.61206 57.7735 0.473407 57.5002C-0.32187 57.3517 0.0807587 56.5305 0.282001 56.1184C0.428317 55.6979 0.49844 55.5543 0.713642 55.1624C1.1572 54.0833 1.59718 53.0797 2.16286 52.0569C2.32408 51.7298 2.43041 51.3102 2.60134 50.9944C3.51638 49.3041 4.00349 47.4277 4.8152 45.6975C4.88378 45.5513 5.5607 44.9362 5.72438 44.7747C5.76996 44.0927 6.28946 42.348 6.66872 41.7336C6.80696 41.51 7.34761 40.9664 7.56618 40.7415C7.77803 40.3748 7.85045 40.1916 8.00563 39.8C8.28392 39.1554 8.75232 38.4045 9.00466 37.7991C9.55726 36.4724 9.77233 35.7087 10.5789 34.468C10.6833 34.2721 10.7763 34.0308 10.8631 33.8235C11.17 32.9575 11.4658 32.9944 11.8318 32.3196C12.083 31.7429 12.3409 31.1594 12.5955 30.5852C13.0334 29.5981 13.5371 28.8139 14.1795 27.9534C14.3675 27.7015 14.5006 27.2781 14.7195 26.9573L15.0105 26.2795C15.4525 25.078 16.0649 25.1878 16.5769 23.3625L16.7058 23.1213C16.9572 22.5933 17.1703 22.1169 17.3875 21.5764C17.5604 21.1459 17.7998 20.2888 18.0281 19.9309C18.6747 18.9175 19.9393 17.4887 20.322 16.343C21.226 16.7158 21.4731 17.0273 22.5193 17.1829C23.1481 16.7598 23.8133 15.97 24.1414 15.2737C24.2872 14.9644 24.3487 14.7146 24.5437 14.4202C24.7265 14.037 24.9859 13.5763 25.1873 13.1936C25.7218 12.1117 27.0714 10.7347 27.8279 9.73462C28.7008 8.58084 29.681 7.48597 30.4324 6.2395C30.5663 6.018 31.8423 4.99752 32.1267 4.80493ZM33.9334 36.2512C33.2904 36.0171 31.1981 35.9402 30.5877 36.2493C28.8781 37.2123 28.7107 39.6436 27.5076 41.0725C26.4799 42.2852 24.9754 43.0602 23.782 44.0051C22.9328 44.6775 21.5217 46.321 21.2068 47.3528C19.5486 52.7852 24.4786 54.5916 28.865 53.8157L29.0408 53.7522L29.2224 53.6917C29.7297 53.5009 29.5261 53.571 29.8299 53.4456C30.3341 53.261 31.1448 53.1747 31.5261 53.0159C34.1843 51.9092 35.5596 51.9383 38.3269 52.6584C40.033 53.1022 43.0069 52.2205 43.7351 50.3489C44.7904 47.2663 43.7446 45.5809 41.0925 43.9983C40.9325 43.9028 40.4098 43.0777 40.1052 42.8567C38.5188 41.706 37.4491 41.1426 36.657 39.2483C36.2738 38.3321 34.9151 36.6089 33.9334 36.2512ZM45.2146 32.7727C45.0089 32.8685 44.6868 33.005 44.4793 33.2297C42.2214 35.6738 40.0327 40.4988 43.8855 42.6096C43.9878 42.6657 44.4827 42.7201 44.6463 42.7395C45.3023 42.7895 45.952 42.5766 46.4519 42.1487C48.1289 40.729 48.0891 38.1845 47.7029 36.2053C47.6522 35.9453 47.7144 35.5861 47.698 35.3167C47.6246 34.7034 47.3273 33.957 46.9119 33.4993C46.4185 32.9555 45.9368 32.7074 45.2146 32.7727ZM19.8377 30.9749C17.3884 31.706 17.1947 35.7754 17.4187 37.8069C17.6035 39.4813 17.5903 40.8872 19.3552 41.8C20.1693 42.2306 20.7592 42.2235 21.6482 42.1702C22.3848 42.0157 22.954 41.7983 23.3963 41.1428C24.2075 39.9404 24.2579 38.3864 24.1277 36.9895C24.1049 36.7478 23.6139 35.6247 23.4929 35.3411C22.8681 33.8755 22.5001 32.299 21.0935 31.3577C20.6331 31.0496 20.3717 30.9774 19.8377 30.9749ZM37.948 22.5266C37.1316 23.0499 36.3933 24.498 35.5857 25.1887C35.1845 25.5317 35.1993 27.0518 35.117 27.5549C34.9504 29.1586 34.7597 31.105 35.7957 32.4836C36.5853 33.5341 37.5331 35.0092 39.031 34.5491C39.727 34.33 40.9736 33.4429 41.2771 32.7717C42.3618 30.3728 42.0604 28.1695 41.2 25.7688C40.7386 24.4817 39.5046 22.4865 37.948 22.5266ZM28.8543 21.4192C28.4105 21.288 27.9315 21.353 27.5388 21.5979C26.4359 22.2744 25.375 24.7107 25.0447 25.9543C24.7019 27.2454 24.6213 28.7455 24.9949 30.05C25.187 30.6518 25.8672 31.766 26.1863 32.3411C26.8174 33.4785 28.0631 33.6776 29.2771 33.6633C29.4306 33.6633 29.4289 33.6635 29.5769 33.6174L29.699 33.5559C29.7034 33.5543 29.7217 33.5478 29.782 33.5247C31.427 32.7981 31.7658 31.1855 31.9392 29.5559C32.0394 28.2399 32.725 27.9133 31.8308 26.6467C31.7007 26.4625 31.6563 24.911 31.5388 24.5891C31.18 23.6074 29.8475 21.7084 28.8543 21.4192ZM45.6824 27.5881C45.2422 28.3561 44.994 29.9017 45.117 30.7903C45.1915 31.3246 46.0041 31.3868 46.4216 31.3997C47.5757 30.8225 46.6029 29.6674 46.4099 28.8176C46.2721 28.2096 46.5431 27.7223 45.6824 27.5881ZM19.8709 25.2991C18.6982 26.0467 16.8657 28.475 18.6179 29.5159C19.1427 29.6438 19.7782 29.6732 20.1091 29.1243C20.5803 28.3421 20.2288 27.3344 20.1287 26.5002C20.0844 26.1299 20.1694 25.7255 20.0613 25.3762C19.9506 25.3103 19.9929 25.3215 19.8709 25.2991ZM37.9256 17.3352C37.6351 17.3896 37.6328 17.3392 37.4734 17.511C37.2899 18.2079 37.4096 19.0129 37.45 19.7239C37.5129 20.8301 38.1382 21.8542 39.3601 21.2356C40.3507 20.3723 39.9514 20.0982 39.4871 18.968C39.2219 18.3224 38.7374 17.3014 37.9256 17.3352ZM28.5965 16.2913C27.6484 16.8856 27.3161 18.1069 27.239 19.1555C27.199 19.1972 26.9512 19.4503 26.9324 19.4788C27.1597 19.8493 27.2135 20.0212 27.6306 20.1633C28.0024 20.1833 28.2139 20.24 28.5369 19.9905C29.2805 19.416 29.5236 17.125 29.0935 16.3528C28.909 16.2394 28.8543 16.2796 28.5965 16.2913Z" fill="#DB2777"/>
</svg>
