<svg width="601" height="600" viewBox="0 0 601 600" fill="none" xmlns="http://www.w3.org/2000/svg">
<path d="M158.054 126.891C156.297 125.828 149.033 119.332 147.177 117.698C140.867 112.127 134.525 106.592 128.15 101.097C120.487 94.4445 58.4968 41.6139 56.7578 38.032L57.2597 37.0892C59.6423 35.5102 100.98 36.1477 107.904 36.1489L199.662 36.1684L307.046 36.1294C328.823 36.1025 352.08 35.741 373.773 36.3358C385.315 35.8106 399.325 36.1684 411.09 36.1855L477.474 36.2271L520.911 36.1648C541.065 36.1623 556.202 34.6761 572.474 49.4665C582.683 58.6416 588.749 71.5549 589.29 85.2706C589.771 98.9765 585.564 110.819 577.194 121.593C575.983 123.152 573.819 126.354 572.366 127.489C570.155 127.784 566.903 130.202 564.838 131.549C549.081 141.815 529.069 139.249 510.611 139.255L449.617 139.281L248.892 139.064L171.87 138.934H171.825C167.46 135.505 162.079 130.691 158.054 126.891Z" fill="#8956FF"/>
<path d="M542.756 164.227C519.072 195.786 493.713 227.731 469.758 258.783L315.333 458.873L258.702 532.258C254.057 538.276 237.186 561.118 233.263 564L232.079 563.928C230.136 559.434 228.137 544.956 227.194 539.21L220.43 497.775L208.247 423.409C206.004 409.91 203.697 396.341 201.569 382.818C201.236 380.697 200.756 376.486 201.677 374.587C202.458 372.976 204.773 371.213 206.248 370.169L207.019 370.092C219.129 368.939 232.745 370.437 244.874 369.816C252.562 369.423 271.899 371.678 277.478 367.406C279.389 363.5 277.477 361.519 274.432 359.257C265.624 352.716 256.704 346.323 247.822 339.88L197.577 303.431L45.1816 192.855L22.8828 176.688C19.8163 174.48 11.9286 169.99 11.125 166.77C13.1876 163.515 21.2976 164.543 24.9834 164.653C37.3838 164.221 52.255 164.618 64.8203 164.614L150.561 164.47C150.459 164.39 150.357 164.308 150.254 164.227H542.756Z" fill="#8956FF"/>
</svg>
